<svg width="20" height="16" viewBox="0 0 20 16" fill="none" xmlns="http://www.w3.org/2000/svg">
<path d="M18 14.0001H2C1.82319 14.0001 1.65362 13.9298 1.5286 13.8048C1.40357 13.6798 1.33333 13.5102 1.33333 13.3334C1.33333 13.1566 1.40357 12.987 1.5286 12.862C1.65362 12.737 1.82319 12.6667 2 12.6667H18C18.1768 12.6667 18.3464 12.737 18.4714 12.862C18.5964 12.987 18.6667 13.1566 18.6667 13.3334C18.6667 13.5102 18.5964 13.6798 18.4714 13.8048C18.3464 13.9298 18.1768 14.0001 18 14.0001ZM16.6667 16.0001H3.33333C3.15652 16.0001 2.98695 15.9298 2.86193 15.8048C2.7369 15.6798 2.66667 15.5102 2.66667 15.3334C2.66667 15.1566 2.7369 14.987 2.86193 14.862C2.98695 14.737 3.15652 14.6667 3.33333 14.6667H16.6667C16.8435 14.6667 17.013 14.737 17.1381 14.862C17.2631 14.987 17.3333 15.1566 17.3333 15.3334C17.3333 15.5102 17.2631 15.6798 17.1381 15.8048C17.013 15.9298 16.8435 16.0001 16.6667 16.0001ZM0.666667 8.66675H0V10.6667C0 11.0204 0.140476 11.3595 0.390524 11.6096C0.640573 11.8596 0.979711 12.0001 1.33333 12.0001H3.33333V11.3334C3.33256 10.6264 3.05136 9.94858 2.55143 9.44865C2.0515 8.94872 1.37367 8.66752 0.666667 8.66675Z" fill="url(#paint0_linear_2_474)"/>
<path d="M19.3333 7.33333H20V4.66667H19.3333C18.2728 4.66545 17.2561 4.24364 16.5062 3.49375C15.7564 2.74387 15.3345 1.72716 15.3333 0.666667V0H4.66667V0.666667C4.66545 1.72716 4.24364 2.74387 3.49375 3.49375C2.74387 4.24364 1.72716 4.66545 0.666667 4.66667H0V7.33333H0.666667C1.72716 7.33455 2.74387 7.75636 3.49375 8.50625C4.24364 9.25613 4.66545 10.2728 4.66667 11.3333V12H15.3333V11.3333C15.3345 10.2728 15.7564 9.25613 16.5062 8.50625C17.2561 7.75636 18.2728 7.33455 19.3333 7.33333ZM10 10C9.20887 10 8.43552 9.7654 7.77772 9.32588C7.11992 8.88635 6.60723 8.26164 6.30448 7.53073C6.00173 6.79983 5.92252 5.99556 6.07686 5.21964C6.2312 4.44372 6.61216 3.73098 7.17157 3.17157C7.73098 2.61216 8.44372 2.2312 9.21964 2.07686C9.99556 1.92252 10.7998 2.00173 11.5307 2.30448C12.2616 2.60723 12.8864 3.11992 13.3259 3.77772C13.7654 4.43552 14 5.20887 14 6C13.9988 7.06049 13.577 8.0772 12.8271 8.82709C12.0772 9.57697 11.0605 9.99879 10 10Z" fill="url(#paint1_linear_2_474)"/>
<path d="M10.0002 8.66683C11.4729 8.66683 12.6668 7.47292 12.6668 6.00016C12.6668 4.5274 11.4729 3.3335 10.0002 3.3335C8.5274 3.3335 7.3335 4.5274 7.3335 6.00016C7.3335 7.47292 8.5274 8.66683 10.0002 8.66683Z" fill="url(#paint2_linear_2_474)"/>
<path d="M16.6667 11.3333V12H18.6667C19.0203 12 19.3594 11.8595 19.6095 11.6095C19.8595 11.3594 20 11.0203 20 10.6667V8.66667H19.3333C18.6263 8.66744 17.9485 8.94864 17.4486 9.44857C16.9486 9.9485 16.6674 10.6263 16.6667 11.3333ZM19.3333 3.33333H20V1.33333C20 0.979711 19.8595 0.640573 19.6095 0.390524C19.3594 0.140476 19.0203 0 18.6667 0H16.6667V0.666667C16.6674 1.37367 16.9486 2.0515 17.4486 2.55143C17.9485 3.05136 18.6263 3.33256 19.3333 3.33333ZM3.33333 0.666667V0H1.33333C0.979711 0 0.640573 0.140476 0.390524 0.390524C0.140476 0.640573 0 0.979711 0 1.33333V3.33333H0.666667C1.37367 3.33256 2.0515 3.05136 2.55143 2.55143C3.05136 2.0515 3.33256 1.37367 3.33333 0.666667Z" fill="url(#paint3_linear_2_474)"/>
<defs>
<linearGradient id="paint0_linear_2_474" x1="0.566151" y1="16.3607" x2="14.3696" y2="4.44581" gradientUnits="userSpaceOnUse">
<stop stop-color="#D60580"/>
<stop offset="1" stop-color="#00FFFF"/>
</linearGradient>
<linearGradient id="paint1_linear_2_474" x1="0.60659" y1="12.5902" x2="20.1672" y2="1.5349" gradientUnits="userSpaceOnUse">
<stop stop-color="#D60580"/>
<stop offset="1" stop-color="#00FFFF"/>
</linearGradient>
<linearGradient id="paint2_linear_2_474" x1="7.49525" y1="8.92913" x2="13.6678" y2="6.83597" gradientUnits="userSpaceOnUse">
<stop stop-color="#D60580"/>
<stop offset="1" stop-color="#00FFFF"/>
</linearGradient>
<linearGradient id="paint3_linear_2_474" x1="0.60659" y1="12.5902" x2="20.1672" y2="1.5349" gradientUnits="userSpaceOnUse">
<stop stop-color="#D60580"/>
<stop offset="1" stop-color="#00FFFF"/>
</linearGradient>
</defs>
</svg>
