<svg width="117" height="20" viewBox="0 0 117 20" fill="none" xmlns="http://www.w3.org/2000/svg">
<path d="M17.1318 11.9574C16.7829 12.1705 16.376 12.2093 16.0659 12.0349C15.6783 11.8023 15.4457 11.2791 15.4457 10.562V8.37209C15.4457 7.32558 15.0388 6.56977 14.3411 6.37597C13.1589 6.02713 12.2674 7.48062 11.938 8.02325L9.84496 11.376V7.24806C9.82558 6.29845 9.5155 5.73644 8.93411 5.56202C8.54651 5.44574 7.96512 5.50388 7.4031 6.35659L2.73256 13.8372C2.1124 12.655 1.78295 11.3372 1.78295 10C1.78295 5.4845 5.40698 1.8217 9.84496 1.8217C14.2829 1.8217 17.907 5.4845 17.907 10V10.0194V10.0388C17.9457 10.9109 17.6744 11.6085 17.1318 11.9574ZM19.6899 10V9.98062V9.96124C19.6705 4.47674 15.2519 0 9.84496 0C4.4186 0 0 4.47674 0 10C0 15.5039 4.4186 20 9.84496 20C12.345 20 14.7093 19.0504 16.531 17.3256C16.8992 16.9767 16.9186 16.4147 16.5698 16.0465C16.2403 15.6783 15.6783 15.6589 15.3101 15.9884C15.3101 15.9884 15.3101 15.9884 15.2907 16.0078C13.8178 17.4031 11.8411 18.1977 9.8062 18.1977C7.42248 18.1977 5.2907 17.1512 3.81783 15.4845L8.02325 8.74031V11.8605C8.02325 13.3527 8.60465 13.8372 9.08915 13.9729C9.57364 14.1085 10.3101 14.0116 11.1046 12.7519L13.4109 9.01163C13.4884 8.89535 13.5465 8.77907 13.624 8.70155V10.6008C13.624 11.9961 14.186 13.1202 15.155 13.6628C16.0271 14.1667 17.1318 14.1085 18.0426 13.5465C19.1667 12.8101 19.7674 11.531 19.6899 10ZM33.4109 6.58915C33.6434 6.72481 33.8566 7.05426 33.8566 7.34496C33.8566 7.81008 33.469 8.19768 33.0233 8.19768C32.907 8.19768 32.8101 8.15891 32.7132 8.13953C32.1899 7.75194 31.531 7.5 30.8333 7.5C29.186 7.5 28.062 8.83721 28.062 10.5039C28.062 12.1705 29.2054 13.4884 30.8333 13.4884C31.6473 13.4884 32.3837 13.1589 32.9264 12.6357C33.062 12.5388 33.2364 12.4806 33.4109 12.4806C33.8566 12.4806 34.2054 12.8295 34.2054 13.2752C34.2054 13.5659 34.031 13.8178 33.8178 13.9535C33.0233 14.6318 31.9574 15.0775 30.8527 15.0775C28.3333 15.0775 26.2791 13.0039 26.2791 10.4457C26.2791 7.88759 28.3333 5.81395 30.8527 5.81395C31.7829 5.79457 32.6744 6.08527 33.4109 6.58915ZM38.0233 8.52713C39.7481 8.52713 41.1822 9.98062 41.1822 11.7829C41.1822 13.5659 39.7287 15.0969 38.0233 15.0969C36.2209 15.0969 34.7287 13.5853 34.7287 11.7829C34.7287 9.98062 36.2209 8.52713 38.0233 8.52713ZM38.0039 13.4884C38.7597 13.4884 39.3992 12.7713 39.3992 11.8023C39.3992 10.8333 38.7597 10.2132 38.0039 10.2132C37.1899 10.2132 36.5116 10.814 36.5116 11.8023C36.5116 12.7519 37.1899 13.4884 38.0039 13.4884ZM42.2674 14.0891V9.5155C42.2674 9.01163 42.655 8.60465 43.1589 8.60465C43.6434 8.60465 44.0504 9.01163 44.0504 9.5155V14.0891C44.0504 14.593 43.6434 15 43.1589 15C42.6744 15 42.2674 14.5736 42.2674 14.0891ZM42.1318 6.87984C42.1318 6.27907 42.5969 5.81395 43.1589 5.81395C43.7403 5.81395 44.2054 6.29845 44.2054 6.87984C44.2054 7.46124 43.7403 7.92635 43.1589 7.92635C42.5775 7.90697 42.1318 7.44186 42.1318 6.87984ZM47.4612 11.6085V14.0891C47.4612 14.593 47.0543 15 46.5698 15C46.0853 15 45.6783 14.593 45.6783 14.0891V9.30232C45.6783 8.91473 45.9884 8.60465 46.376 8.60465C46.7636 8.60465 47.0543 8.93411 47.0543 9.30232C47.7713 8.62403 48.4108 8.52713 49.0116 8.52713C50.7946 8.52713 51.5891 9.86434 51.5891 11.3954V14.0891C51.5891 14.593 51.1822 15 50.6977 15C50.2132 15 49.8062 14.593 49.8062 14.0891V11.6085C49.8062 10.8333 49.7093 10.1744 48.5853 10.1744C47.7907 10.1744 47.4612 10.8333 47.4612 11.6085ZM57.3643 12.5581C57.1512 12.5581 57.0155 12.4612 56.8992 12.3256L54.8256 10.0775V14.0891C54.8256 14.593 54.4186 15 53.9341 15C53.4496 15 53.0426 14.593 53.0426 14.0891V6.14341C53.1008 6.00775 53.2364 5.91085 53.3721 5.91085C53.5271 5.91085 53.6628 6.04651 53.7597 6.14341L57.0736 9.86434C57.1705 9.98062 57.2868 10.0388 57.3643 10.0388C57.4225 10.0388 57.5581 9.98062 57.655 9.86434L60.969 6.14341C61.0659 6.04651 61.1822 5.91085 61.3566 5.91085C61.5116 5.91085 61.6473 6.00775 61.686 6.14341V14.0891C61.686 14.593 61.2984 15 60.7946 15C60.3101 15 59.9031 14.593 59.9031 14.0891V10.0775L57.8294 12.3256C57.6744 12.4612 57.5388 12.5581 57.3643 12.5581ZM65.9302 13.4884C66.7248 13.4884 67.4031 12.7713 67.4031 11.8023C67.4031 10.8333 66.7054 10.1938 65.9302 10.1938C65.155 10.1938 64.5155 10.8527 64.5155 11.8023C64.5155 12.7326 65.1356 13.4884 65.9302 13.4884ZM67.8294 14.3023L67.7907 14.0891C67.4418 14.7674 66.3372 15.0775 65.6395 15.0775C63.9729 15.0775 62.7325 13.5659 62.7325 11.7636C62.7325 9.98062 63.9922 8.50775 65.7364 8.50775C66.0271 8.50775 67.0349 8.58527 67.8101 9.49612L67.8488 9.28294C67.8488 8.89535 68.1395 8.58527 68.5271 8.58527C68.9147 8.58527 69.2248 8.91473 69.2248 9.28294V14.2829C69.2248 14.6705 68.9147 14.9806 68.5271 14.9806C68.1201 15 67.8294 14.6705 67.8294 14.3023ZM74.1279 10.1744H73.9341C72.8101 10.2326 72.5969 10.8721 72.5969 11.6085V14.0891C72.5969 14.593 72.1899 15 71.7054 15C71.2209 15 70.8139 14.593 70.8139 14.0891V9.30232C70.8139 8.91473 71.124 8.60465 71.5116 8.60465C71.8992 8.60465 72.1899 8.93411 72.1899 9.30232C72.8488 8.68217 73.3915 8.54651 73.9341 8.52713H74.1085C74.5349 8.52713 74.9225 8.89535 74.9225 9.36047C74.9418 9.78682 74.5543 10.1744 74.1279 10.1744ZM81.0077 13.6628C81.0853 13.7984 81.1434 13.9341 81.1434 14.0891C81.1434 14.5543 80.717 14.9806 80.2519 14.9806C79.9418 14.9806 79.6705 14.7481 79.4574 14.4767L77.4031 12.093V14.0698C77.4031 14.5736 76.9961 14.9806 76.5116 14.9806C76.0271 14.9806 75.6201 14.5736 75.6201 14.0698V6.80233C75.6201 6.29845 76.0077 5.89147 76.5116 5.89147C77.0155 5.89147 77.4031 6.29845 77.4031 6.80233V11.3372L79.4574 9.06977C79.6705 8.83721 79.9225 8.58527 80.2325 8.58527C80.6783 8.58527 81.0853 8.99225 81.0853 9.45737C81.0853 9.59303 81.0465 9.74806 80.969 9.86434L79.3411 11.6473L81.0077 13.6628ZM84.4961 10.1938C84.0116 10.1938 83.217 10.4457 83.217 11.2016H85.7946C85.7752 10.4457 84.9612 10.1938 84.4961 10.1938ZM86.8217 12.345H83.217C83.217 13.4109 84.2442 13.5853 84.6899 13.5853C85.0194 13.5853 85.4845 13.5271 85.8527 13.3527C85.969 13.2752 86.1434 13.2171 86.3178 13.2171C86.7054 13.2171 87.0349 13.5465 87.0349 13.9535C87.0349 14.2248 86.8605 14.4574 86.6473 14.593C86.1046 15 85.3876 15.0969 84.7093 15.0969C82.907 15.0969 81.4147 14.1279 81.4147 11.8605C81.4147 10.0775 82.3256 8.52713 84.4574 8.52713C86.1822 8.52713 87.4806 9.65116 87.5194 11.6473C87.5194 12.0155 87.2093 12.345 86.8217 12.345ZM91.7829 15.0775H91.2984C89.9418 15.0775 89.1473 14.4767 89.1473 12.3643V10.1744H88.6822C88.2558 10.1744 87.8876 9.78682 87.8876 9.36047C87.8876 8.89535 88.2752 8.52713 88.6822 8.52713H89.1473V6.84109C89.1473 6.33721 89.5349 5.93023 90.0387 5.93023C90.5232 5.93023 90.9302 6.33721 90.9302 6.84109V8.52713H91.6667C92.093 8.52713 92.4612 8.89535 92.4612 9.36047C92.4612 9.78682 92.0736 10.1744 91.6667 10.1744H90.9302V12.0155C90.9302 13.2364 90.9884 13.4884 91.531 13.4884H91.7829C92.2093 13.4884 92.5775 13.8372 92.5775 14.2829C92.5775 14.7093 92.2093 15.0775 91.7829 15.0775ZM100.407 6.58915C100.64 6.72481 100.853 7.05426 100.853 7.34496C100.853 7.81008 100.465 8.19768 100.019 8.19768C99.9031 8.19768 99.8062 8.15891 99.7093 8.13953C99.186 7.75194 98.5271 7.5 97.8294 7.5C96.1822 7.5 95.0581 8.83721 95.0581 10.5039C95.0581 12.1705 96.2015 13.4884 97.8294 13.4884C98.6434 13.4884 99.3798 13.1589 99.9225 12.6357C100.058 12.5388 100.233 12.4806 100.407 12.4806C100.853 12.4806 101.202 12.8295 101.202 13.2752C101.202 13.5659 101.027 13.8178 100.814 13.9535C100.019 14.6318 98.9535 15.0775 97.8488 15.0775C95.3294 15.0775 93.2752 13.0039 93.2752 10.4457C93.2752 7.88759 95.3294 5.81395 97.8488 5.81395C98.7791 5.79457 99.6899 6.08527 100.407 6.58915ZM104.922 13.4884C105.717 13.4884 106.395 12.7713 106.395 11.8023C106.395 10.8333 105.698 10.1938 104.922 10.1938C104.128 10.1938 103.508 10.8527 103.508 11.8023C103.508 12.7326 104.147 13.4884 104.922 13.4884ZM106.822 14.3023L106.783 14.0891C106.434 14.7674 105.329 15.0775 104.632 15.0775C102.965 15.0775 101.725 13.5659 101.725 11.7636C101.725 9.98062 102.984 8.50775 104.729 8.50775C105.019 8.50775 106.027 8.58527 106.802 9.49612L106.841 9.28294C106.841 8.89535 107.132 8.58527 107.519 8.58527C107.907 8.58527 108.217 8.91473 108.217 9.28294V14.2829C108.217 14.6705 107.907 14.9806 107.519 14.9806C107.112 15 106.822 14.6705 106.822 14.3023ZM113.081 13.4884C113.876 13.4884 114.496 12.7326 114.496 11.8023C114.496 10.8333 113.857 10.1938 113.081 10.1938C112.287 10.1938 111.609 10.8333 111.609 11.8023C111.609 12.7713 112.287 13.4884 113.081 13.4884ZM111.609 14.5543V16.8217C111.609 17.3256 111.202 17.7326 110.717 17.7326C110.233 17.7326 109.826 17.3256 109.826 16.8217V9.30232C109.826 8.91473 110.136 8.60465 110.523 8.60465C110.911 8.60465 111.202 8.93411 111.202 9.37984C111.86 8.70155 112.674 8.52713 113.295 8.52713C115.019 8.52713 116.298 9.98062 116.298 11.7829C116.298 13.5659 115.077 15.0969 113.391 15.0969C112.868 15.0775 112.093 14.9225 111.609 14.5543Z" fill="#17181B"/>
</svg>
