<svg width="76" height="21" viewBox="0 0 76 21" fill="none" xmlns="http://www.w3.org/2000/svg">
<path d="M31.4152 9.09721C31.2085 8.29157 30.6874 7.70207 29.6685 7.70207C28.1649 7.70207 27.5361 9.02808 27.5361 10.3737C27.5361 11.7194 28.1649 13.0461 29.6685 13.0461C30.7602 13.0461 31.3584 12.231 31.4559 11.2092H32.6546C32.5563 12.8889 31.3679 14.0475 29.6707 14.0475C27.5681 14.0475 26.3105 12.3773 26.3105 10.373C26.3105 8.36871 27.5638 6.69556 29.6663 6.69556C31.2478 6.70502 32.4952 7.5798 32.6429 9.09285L31.4152 9.09721Z" fill="#4C4C4C"/>
<path d="M33.3801 11.3333C33.3801 9.78094 34.3131 8.66162 35.9441 8.66162C37.575 8.66162 38.508 9.78094 38.508 11.3333C38.508 12.8856 37.575 14.0159 35.9441 14.0159C34.3131 14.0159 33.3801 12.8958 33.3801 11.3333ZM37.388 11.3333C37.388 10.46 36.9462 9.54587 35.9441 9.54587C34.9419 9.54587 34.5002 10.4592 34.5002 11.3333C34.5002 12.2073 34.9419 13.1316 35.9441 13.1316C36.9462 13.1316 37.388 12.2175 37.388 11.3333Z" fill="#4C4C4C"/>
<path d="M39.4709 6.86316H40.591V7.92426H39.4709V6.86316ZM39.4709 8.79904H40.591V13.8782H39.4709V8.79904Z" fill="#4C4C4C"/>
<path d="M41.8093 8.7987H42.8704V9.5454L42.8901 9.56505C43.051 9.28845 43.2819 9.05917 43.5597 8.90035C43.8375 8.74152 44.1523 8.65876 44.4723 8.66042C45.5727 8.66042 46.2699 9.24992 46.2699 10.3889V13.8771H45.1498V10.6844C45.1302 9.88891 44.8158 9.5454 44.1579 9.5454C43.4112 9.5454 42.9294 10.1342 42.9294 10.8809V13.8778H41.8093V8.7987Z" fill="#4C4C4C"/>
<path d="M53.7267 13.878H52.9407L52.7544 13.0527C52.0994 13.7994 51.4968 14.0446 50.6438 14.0446C48.5427 14.0461 47.2822 12.3722 47.2822 10.3701C47.2822 8.36798 48.5427 6.69556 50.6424 6.69556C52.1707 6.69556 53.4618 7.51066 53.6481 9.09285H52.4494C52.3315 8.1693 51.5266 7.6977 50.6424 7.6977C49.1388 7.6977 48.51 9.02371 48.51 10.3694C48.51 11.715 49.1388 13.0418 50.6424 13.0418C51.8992 13.0614 52.587 12.3052 52.6074 11.1161H50.7406V10.1838H53.7245L53.7267 13.878Z" fill="#4C4C4C"/>
<path d="M55.7804 11.628C55.7804 12.4242 56.2127 13.1316 57.1458 13.1316C57.7942 13.1316 58.1872 12.8463 58.383 12.2867H59.4448C59.1995 13.3965 58.2563 14.0159 57.1458 14.0159C55.5548 14.0159 54.6604 12.9053 54.6604 11.3435C54.6604 9.89884 55.6065 8.66162 57.1166 8.66162C58.7177 8.66162 59.7002 10.1055 59.5139 11.628H55.7804ZM58.3939 10.8915C58.3546 10.1841 57.8728 9.54587 57.1166 9.54587C56.3401 9.54587 55.8103 10.1346 55.7804 10.8915H58.3939Z" fill="#4C4C4C"/>
<path d="M63.7976 10.4985C63.7088 9.87919 63.2568 9.54587 62.6382 9.54587C62.056 9.54587 61.2431 9.85008 61.2431 11.3922C61.2431 12.2372 61.6164 13.1316 62.5887 13.1316C63.2372 13.1316 63.6891 12.6993 63.7976 11.9723H64.9176C64.7109 13.2888 63.8987 14.0159 62.5887 14.0159C60.9971 14.0159 60.123 12.8856 60.123 11.3922C60.123 9.85954 60.9585 8.66162 62.628 8.66162C63.807 8.66162 64.8114 9.25112 64.9176 10.4985H63.7976Z" fill="#4C4C4C"/>
<path d="M65.8638 6.86316H66.9838V10.8521L69.0078 8.79904H70.3833L68.4379 10.6651L70.5696 13.8782H69.2013L67.649 11.4118L66.9809 12.0602V13.8796H65.8638V6.86316Z" fill="#4C4C4C"/>
<path d="M70.8716 11.3333C70.8716 9.78094 71.8046 8.66162 73.4355 8.66162C75.0665 8.66162 76.0002 9.78094 76.0002 11.3333C76.0002 12.8856 75.0665 14.0159 73.4355 14.0159C71.8046 14.0159 70.8716 12.8958 70.8716 11.3333ZM74.8802 11.3333C74.8802 10.46 74.4377 9.54587 73.4355 9.54587C72.4334 9.54587 71.9916 10.4592 71.9916 11.3333C71.9916 12.2073 72.4334 13.1316 73.4355 13.1316C74.4377 13.1316 74.8802 12.2175 74.8802 11.3333Z" fill="#4C4C4C"/>
<path d="M20.0865 9.999C20.0953 11.9854 19.5148 13.9297 18.4185 15.5862C17.3222 17.2427 15.7593 18.5369 13.9275 19.3051C12.0956 20.0733 10.0771 20.2811 8.12722 19.9021C6.17731 19.5232 4.38356 18.5745 2.97282 17.176C1.56208 15.7776 0.597707 13.9923 0.201655 12.0457C-0.194397 10.0992 -0.00433913 8.07898 0.747794 6.24049C1.49993 4.40199 2.78035 2.82781 4.42715 1.71703C6.07395 0.60625 8.01316 0.00875133 9.99954 9.54868e-05C12.6631 -0.0115111 15.2221 1.0354 17.1138 2.91055C19.0054 4.78569 20.0748 7.33547 20.0865 9.999Z" fill="#8DC63F"/>
<path d="M19.3334 10.0023C19.3418 11.8394 18.8051 13.6378 17.7914 15.1699C16.7777 16.702 15.3324 17.8991 13.6383 18.6098C11.9442 19.3205 10.0774 19.5129 8.27396 19.1626C6.47053 18.8124 4.81146 17.9352 3.50658 16.642C2.20169 15.3488 1.30958 13.6977 0.943072 11.8975C0.576564 10.0973 0.752116 8.22886 1.44753 6.52843C2.14294 4.828 3.32697 3.37198 4.8499 2.34448C6.37283 1.31699 8.16625 0.764173 10.0034 0.755949C12.4667 0.745116 14.8334 1.71314 16.5831 3.44711C18.3328 5.18109 19.3221 7.53902 19.3334 10.0023Z" fill="#F9E988"/>
<path d="M10.2141 1.3579C10.8046 1.2531 11.4089 1.2531 11.9993 1.3579C12.5955 1.4523 13.1718 1.64538 13.7045 1.9292C14.2343 2.22031 14.6921 2.6155 15.1477 2.98593C15.6033 3.35637 16.0567 3.73554 16.4883 4.15037C16.9288 4.55874 17.3133 5.02372 17.6316 5.53315C17.9593 6.03854 18.228 6.57992 18.4321 7.14662C18.82 8.28632 18.9547 9.51408 18.7611 10.6851H18.7036C18.5093 9.52426 18.2458 8.41805 17.8303 7.36568C17.6352 6.83575 17.4057 6.31914 17.1433 5.81916C16.8694 5.3191 16.5676 4.83485 16.2394 4.36871C15.9055 3.89746 15.4964 3.48438 15.0283 3.14604C14.5567 2.80981 14.0145 2.59221 13.4898 2.38552C12.9651 2.17883 12.4447 1.96487 11.8975 1.80767C11.3502 1.65047 10.7941 1.53257 10.2134 1.41831L10.2141 1.3579Z" fill="white"/>
<path d="M14.7548 6.7234C14.0809 6.52835 13.3822 6.2518 12.6748 5.97233C12.6341 5.79475 12.4769 5.57351 12.1588 5.30351C11.6967 4.9025 10.8285 4.91269 10.0781 5.09027C9.24992 4.89522 8.4319 4.82609 7.64663 5.01749C1.22402 6.78671 4.8658 11.1031 2.50781 15.4421C2.84332 16.1539 6.45963 20.3066 11.6923 19.1924C11.6923 19.1924 9.90274 14.8919 13.9412 12.828C17.2169 11.1475 19.5836 8.03849 14.7548 6.7234Z" fill="#8BC53F"/>
<path d="M15.5482 9.54843C15.5487 9.62544 15.5263 9.70084 15.4838 9.76511C15.4414 9.82938 15.3809 9.87963 15.3099 9.90949C15.2389 9.93936 15.1607 9.94751 15.0851 9.93291C15.0095 9.91831 14.9399 9.88162 14.8851 9.82747C14.8304 9.77332 14.7929 9.70415 14.7774 9.62871C14.762 9.55327 14.7693 9.47494 14.7983 9.40363C14.8274 9.33232 14.877 9.27123 14.9408 9.22809C15.0045 9.18495 15.0797 9.16169 15.1567 9.16126C15.2599 9.16087 15.3591 9.2014 15.4325 9.27397C15.5058 9.34653 15.5475 9.44523 15.5482 9.54843Z" fill="white"/>
<path d="M10.0781 5.0878C10.5461 5.12128 12.2382 5.67002 12.6748 5.96987C12.3109 4.91459 11.0861 4.77413 10.0781 5.0878Z" fill="#009345"/>
<path d="M10.5235 7.75685C10.5236 8.11212 10.4184 8.45946 10.2211 8.75493C10.0238 9.0504 9.74335 9.28073 9.41516 9.41679C9.08697 9.55285 8.7258 9.58852 8.37734 9.5193C8.02887 9.45008 7.70876 9.27907 7.45749 9.0279C7.20622 8.77674 7.03508 8.45669 6.96572 8.10825C6.89636 7.75982 6.93188 7.39863 7.06781 7.07039C7.20373 6.74214 7.43395 6.46158 7.72934 6.26418C8.02473 6.06679 8.37203 5.96143 8.7273 5.96143C8.96314 5.96133 9.19669 6.0077 9.4146 6.09789C9.63252 6.18807 9.83053 6.32031 9.99733 6.48704C10.1641 6.65377 10.2964 6.85172 10.3867 7.0696C10.477 7.28748 10.5235 7.52101 10.5235 7.75685Z" fill="white"/>
<path d="M9.9907 7.77282C9.9907 8.0227 9.9166 8.26697 9.77778 8.47473C9.63895 8.6825 9.44163 8.84444 9.21077 8.94006C8.97991 9.03569 8.72588 9.06071 8.4808 9.01196C8.23573 8.96321 8.01061 8.84288 7.83391 8.66619C7.65722 8.4895 7.53689 8.26438 7.48814 8.0193C7.43939 7.77422 7.46441 7.52019 7.56004 7.28933C7.65566 7.05847 7.8176 6.86115 8.02537 6.72232C8.23314 6.5835 8.4774 6.5094 8.72729 6.5094C9.06236 6.5094 9.38372 6.64251 9.62066 6.87945C9.85759 7.11638 9.9907 7.43774 9.9907 7.77282Z" fill="#58595B"/>
<path d="M17.0027 10.3403C15.5472 11.3657 13.8922 12.1437 11.5444 12.1437C10.4455 12.1437 10.2228 10.9793 9.49647 11.5484C9.12166 11.8439 7.80002 12.5047 6.7513 12.4545C5.70257 12.4043 4.00249 11.7893 3.52871 9.55066C3.34094 11.7893 3.24488 13.4384 2.4043 15.3285C4.07818 18.0089 8.0693 20.0765 11.6922 19.1857C11.3028 16.4674 13.6783 13.8052 15.0166 12.4428C15.5261 11.9268 16.494 11.0848 17.0027 10.3388V10.3403Z" fill="#8BC53F"/>
<path d="M16.9462 10.4073C16.4942 10.8192 15.9564 11.1242 15.4091 11.3935C14.8552 11.6565 14.2777 11.8668 13.6843 12.0215C13.0904 12.1751 12.4711 12.2908 11.8437 12.234C11.2164 12.1773 10.5752 11.964 10.1597 11.4939L10.1793 11.4713C10.6888 11.8017 11.2768 11.9182 11.8619 11.9349C12.455 11.953 13.0483 11.9041 13.6304 11.7894C14.2185 11.6663 14.7938 11.4884 15.3487 11.2581C15.904 11.0288 16.4535 10.7632 16.9265 10.3848L16.9462 10.4073Z" fill="#58595B"/>
</svg>
