<svg width="24" height="20" viewBox="0 0 24 20" fill="none" xmlns="http://www.w3.org/2000/svg">
<path d="M20.3171 2.36983C18.7874 1.66797 17.1471 1.15084 15.432 0.854636C15.4007 0.848918 15.3695 0.863214 15.3534 0.891761C15.1425 1.267 14.9088 1.75647 14.7451 2.14122C12.9005 1.86503 11.0652 1.86503 9.25837 2.14122C9.09469 1.74793 8.85253 1.267 8.64061 0.891761C8.62453 0.864152 8.59331 0.849855 8.56209 0.854636C6.84796 1.14986 5.20762 1.66698 3.67696 2.36983C3.6637 2.37554 3.65235 2.38506 3.64481 2.39743C0.533427 7.0458 -0.318949 11.5799 0.0991761 16.0578C0.101051 16.0797 0.113379 16.1007 0.130395 16.114C2.18319 17.6216 4.17173 18.5368 6.12328 19.1434C6.1545 19.1529 6.18759 19.1415 6.20746 19.1158C6.66909 18.4854 7.08061 17.8206 7.43343 17.1216C7.45425 17.0807 7.43437 17.0321 7.39181 17.0159C6.73907 16.7683 6.11756 16.4664 5.51967 16.1236C5.47237 16.096 5.46857 16.0283 5.51212 15.9959C5.63793 15.9017 5.76379 15.8036 5.88393 15.7045C5.90568 15.6864 5.93596 15.6826 5.96151 15.694C9.88927 17.4873 14.1415 17.4873 18.0229 15.694C18.0485 15.6816 18.0788 15.6855 18.1014 15.7035C18.2216 15.8026 18.3474 15.9016 18.4742 15.9959C18.5177 16.0283 18.5148 16.0959 18.4676 16.1235C17.8697 16.473 17.2482 16.7682 16.5945 17.0149C16.5519 17.0311 16.533 17.0806 16.5539 17.1215C16.9143 17.8196 17.3258 18.4843 17.7789 19.1148C17.7978 19.1415 17.8319 19.1529 17.8631 19.1434C19.8241 18.5368 21.8126 17.6215 23.8654 16.114C23.8834 16.1007 23.8948 16.0806 23.8967 16.0587C24.3971 10.8818 23.0585 6.38486 20.3482 2.39837C20.3417 2.38506 20.3303 2.37554 20.3171 2.36983ZM8.02008 13.3312C6.83756 13.3312 5.86317 12.2456 5.86317 10.9123C5.86317 9.57902 6.81862 8.49335 8.02008 8.49335C9.23091 8.49335 10.1959 9.58854 10.1769 10.9123C10.1769 12.2456 9.22144 13.3312 8.02008 13.3312ZM15.9948 13.3312C14.8123 13.3312 13.8379 12.2456 13.8379 10.9123C13.8379 9.57902 14.7934 8.49335 15.9948 8.49335C17.2057 8.49335 18.1706 9.58854 18.1517 10.9123C18.1517 12.2456 17.2057 13.3312 15.9948 13.3312Z" fill="#5865F2"/>
</svg>
