<svg width="24" height="24" viewBox="0 0 24 24" fill="none" xmlns="http://www.w3.org/2000/svg">
<path d="M8.011 6.215C6.3 6.206 4.151 7.133 2.512 8.772C1.887 9.397 1.336 10.127 0.911 10.946C2.39 9.827 3.968 9.476 5.814 10.512C6.358 9.075 7.084 7.612 8.011 6.215ZM17.796 15.988C16.28 16.979 14.789 17.694 13.499 18.198C14.535 20.046 14.185 21.622 13.065 23.1C13.884 22.676 14.614 22.125 15.24 21.498C16.884 19.856 17.812 17.702 17.796 15.988ZM23.948 0.042C23.536 0.014 23.132 0 22.735 0C14.133 0 9.237 6.558 7.455 11.833L12.183 16.562C17.611 14.616 24 9.901 24 1.39C24 0.951 23.983 0.502 23.948 0.042ZM14.06 9.952C13.669 9.561 13.669 8.929 14.06 8.538C14.451 8.147 15.083 8.147 15.474 8.538C15.865 8.929 15.865 9.561 15.474 9.952C15.083 10.343 14.45 10.342 14.06 9.952ZM16.888 7.124C16.107 6.344 16.107 5.077 16.888 4.296C17.669 3.515 18.936 3.515 19.716 4.296C20.497 5.077 20.497 6.343 19.716 7.124C18.935 7.905 17.669 7.905 16.888 7.124ZM1.969 19.578L1.063 18.672L6.271 13.484L7.177 14.39L1.969 19.578ZM6.948 21.435L6.042 20.529L9.678 16.865L10.584 17.771L6.948 21.435ZM0.906 24L0 23.094L6.448 16.656L7.354 17.562L0.906 24Z" fill="white"/>
</svg>
