<svg width="18" height="18" viewBox="0 0 18 18" fill="none" xmlns="http://www.w3.org/2000/svg">
<path d="M17.4 18H1.2C0.88174 18 0.576516 17.8736 0.351472 17.6485C0.126428 17.4235 0 17.1183 0 16.8V0.6C0 0.44087 0.0632141 0.288258 0.175736 0.175736C0.288258 0.0632141 0.44087 0 0.6 0C0.75913 0 0.911742 0.0632141 1.02426 0.175736C1.13679 0.288258 1.2 0.44087 1.2 0.6V16.8H17.4C17.5591 16.8 17.7117 16.8632 17.8243 16.9757C17.9368 17.0883 18 17.2409 18 17.4C18 17.5591 17.9368 17.7117 17.8243 17.8243C17.7117 17.9368 17.5591 18 17.4 18Z" fill="url(#paint0_linear_2_506)"/>
<path d="M5.2499 15.6002H3.7499C3.39186 15.6002 3.04848 15.458 2.79531 15.2048C2.54213 14.9517 2.3999 14.6083 2.3999 14.2502V8.55024C2.3999 8.1922 2.54213 7.84882 2.79531 7.59565C3.04848 7.34248 3.39186 7.20024 3.7499 7.20024H5.2499C5.60794 7.20024 5.95132 7.34248 6.2045 7.59565C6.45767 7.84882 6.5999 8.1922 6.5999 8.55024V14.2502C6.5999 14.6083 6.45767 14.9517 6.2045 15.2048C5.95132 15.458 5.60794 15.6002 5.2499 15.6002ZM10.6499 15.6002H9.1499C8.79186 15.6002 8.44848 15.458 8.19531 15.2048C7.94213 14.9517 7.7999 14.6083 7.7999 14.2502V6.75024C7.7999 6.3922 7.94213 6.04882 8.19531 5.79565C8.44848 5.54248 8.79186 5.40024 9.1499 5.40024H10.6499C11.0079 5.40024 11.3513 5.54248 11.6045 5.79565C11.8577 6.04882 11.9999 6.3922 11.9999 6.75024V14.2502C11.9999 14.6083 11.8577 14.9517 11.6045 15.2048C11.3513 15.458 11.0079 15.6002 10.6499 15.6002ZM16.0364 15.6002H14.5364C14.1784 15.6002 13.835 15.458 13.5818 15.2048C13.3286 14.9517 13.1864 14.6083 13.1864 14.2502V4.35024C13.1864 3.9922 13.3286 3.64882 13.5818 3.39565C13.835 3.14248 14.1784 3.00024 14.5364 3.00024H16.0364C16.3944 3.00024 16.7378 3.14248 16.991 3.39565C17.2442 3.64882 17.3864 3.9922 17.3864 4.35024V14.2502C17.3864 14.6083 17.2442 14.9517 16.991 15.2048C16.7378 15.458 16.3944 15.6002 16.0364 15.6002Z" fill="url(#paint1_linear_2_506)"/>
<defs>
<linearGradient id="paint0_linear_2_506" x1="0.545931" y1="18.8853" x2="21.3783" y2="11.8208" gradientUnits="userSpaceOnUse">
<stop stop-color="#D60580"/>
<stop offset="1" stop-color="#00FFFF"/>
</linearGradient>
<linearGradient id="paint1_linear_2_506" x1="2.85444" y1="16.2199" x2="19.4877" y2="9.5111" gradientUnits="userSpaceOnUse">
<stop stop-color="#D60580"/>
<stop offset="1" stop-color="#00FFFF"/>
</linearGradient>
</defs>
</svg>
