<svg width="18" height="18" viewBox="0 0 18 18" fill="none" xmlns="http://www.w3.org/2000/svg">
<path d="M17.9035 0.244C17.8962 0.208469 17.8789 0.175764 17.8536 0.149721C17.8283 0.123678 17.7962 0.105376 17.7609 0.0969594C15.4078 -0.478348 9.97093 1.57179 7.02529 4.51622C6.49991 5.03736 6.02095 5.60329 5.59385 6.2076C4.68549 6.12725 3.77713 6.19434 3.00295 6.53181C0.818632 7.4932 0.182659 10.0017 0.00548716 11.0808C-0.00456237 11.1399 -0.000771682 11.2005 0.016561 11.2578C0.0338936 11.3152 0.0642956 11.3677 0.105376 11.4114C0.146456 11.455 0.197094 11.4885 0.253308 11.5092C0.309521 11.5299 0.369776 11.5373 0.429335 11.5308L3.93702 11.1439C3.93953 11.4084 3.95549 11.6725 3.98483 11.9354C4.00248 12.1179 4.08351 12.2885 4.21383 12.4175L5.57215 13.7726C5.70127 13.9027 5.87179 13.9837 6.05425 14.0016C6.31562 14.0308 6.5783 14.0468 6.84128 14.0494L6.45641 17.5527C6.44999 17.6122 6.45745 17.6724 6.4782 17.7286C6.49896 17.7848 6.53244 17.8354 6.57604 17.8764C6.61963 17.9175 6.67214 17.9479 6.72945 17.9652C6.78676 17.9826 6.84732 17.9865 6.90637 17.9765C7.98346 17.8037 10.4964 17.1678 11.4522 14.9835C11.7897 14.2093 11.8588 13.3053 11.7808 12.4014C12.3866 11.9743 12.954 11.4952 13.4766 10.9696C16.4315 8.02954 18.47 2.71397 17.9035 0.244ZM10.5286 7.46227C10.2587 7.19262 10.075 6.84902 10.0004 6.47491C9.92593 6.1008 9.96405 5.713 10.11 5.36055C10.2559 5.00811 10.5031 4.70686 10.8202 4.49491C11.1374 4.28295 11.5102 4.16982 11.8917 4.16982C12.2732 4.16982 12.646 4.28295 12.9632 4.49491C13.2803 4.70686 13.5275 5.00811 13.6734 5.36055C13.8194 5.713 13.8575 6.1008 13.783 6.47491C13.7084 6.84902 13.5247 7.19262 13.2548 7.46227C13.0759 7.64144 12.8634 7.78358 12.6295 7.88057C12.3956 7.97755 12.1449 8.02747 11.8917 8.02747C11.6385 8.02747 11.3878 7.97755 11.1539 7.88057C10.92 7.78358 10.7075 7.64144 10.5286 7.46227Z" fill="url(#paint0_linear_2_491)"/>
<path d="M5.47966 14.7542C5.2595 14.9748 4.90636 15.0608 4.48131 15.1343C3.52635 15.297 2.68307 14.4718 2.85462 13.5064C2.92011 13.1404 3.11375 12.6274 3.23428 12.5068C3.26062 12.481 3.27815 12.4475 3.28439 12.4112C3.29062 12.3748 3.28524 12.3374 3.26901 12.3043C3.25277 12.2711 3.22651 12.2439 3.19396 12.2266C3.1614 12.2092 3.1242 12.2026 3.08764 12.2075C2.55361 12.2729 2.0568 12.515 1.67628 12.8953C0.731767 13.8407 0.642578 17.3484 0.642578 17.3484C0.642578 17.3484 4.15228 17.2592 5.09679 16.3138C5.47832 15.9336 5.72074 15.4361 5.78499 14.9013C5.79986 14.7334 5.59537 14.6333 5.47966 14.7542Z" fill="url(#paint1_linear_2_491)"/>
<defs>
<linearGradient id="paint0_linear_2_491" x1="0.545876" y1="18.8663" x2="21.3722" y2="11.7975" gradientUnits="userSpaceOnUse">
<stop stop-color="#D60580"/>
<stop offset="1" stop-color="#00FFFF"/>
</linearGradient>
<linearGradient id="paint1_linear_2_491" x1="0.798568" y1="17.6013" x2="6.75086" y2="15.5825" gradientUnits="userSpaceOnUse">
<stop stop-color="#D60580"/>
<stop offset="1" stop-color="#00FFFF"/>
</linearGradient>
</defs>
</svg>
