<svg width="24" height="24" viewBox="0 0 24 24" fill="none" xmlns="http://www.w3.org/2000/svg">
<path d="M16.8503 0.00012207H7.14973C3.20735 0.00012207 0 3.20747 0 7.14985V16.8504C0 20.7928 3.20735 24.0001 7.14973 24.0001H16.8503C20.7926 24.0001 24 20.7928 24 16.8504V7.14985C24 3.20747 20.7926 0.00012207 16.8503 0.00012207ZM21.5856 16.8504C21.5856 19.4656 19.4655 21.5857 16.8503 21.5857H7.14973C4.5345 21.5857 2.4144 19.4656 2.4144 16.8504V7.14985C2.4144 4.53458 4.5345 2.41452 7.14973 2.41452H16.8503C19.4655 2.41452 21.5856 4.53458 21.5856 7.14985V16.8504Z" fill="url(#paint0_linear_2_681)"/>
<path d="M12.0002 5.79285C8.57754 5.79285 5.79297 8.57741 5.79297 12.0001C5.79297 15.4227 8.57754 18.2073 12.0002 18.2073C15.4229 18.2073 18.2075 15.4227 18.2075 12.0001C18.2075 8.57737 15.4229 5.79285 12.0002 5.79285ZM12.0002 15.793C9.90547 15.793 8.20737 14.0949 8.20737 12.0001C8.20737 9.90535 9.90551 8.20725 12.0002 8.20725C14.095 8.20725 15.7931 9.90535 15.7931 12.0001C15.7931 14.0948 14.0949 15.793 12.0002 15.793Z" fill="url(#paint1_linear_2_681)"/>
<path d="M18.2193 7.32682C19.0408 7.32682 19.7067 6.6609 19.7067 5.83944C19.7067 5.01798 19.0408 4.35205 18.2193 4.35205C17.3979 4.35205 16.7319 5.01798 16.7319 5.83944C16.7319 6.6609 17.3979 7.32682 18.2193 7.32682Z" fill="url(#paint2_linear_2_681)"/>
<defs>
<linearGradient id="paint0_linear_2_681" x1="12" y1="23.9303" x2="12" y2="0.186534" gradientUnits="userSpaceOnUse">
<stop stop-color="#E09B3D"/>
<stop offset="0.3" stop-color="#C74C4D"/>
<stop offset="0.6" stop-color="#C21975"/>
<stop offset="1" stop-color="#7024C4"/>
</linearGradient>
<linearGradient id="paint1_linear_2_681" x1="12.0002" y1="23.9302" x2="12.0002" y2="0.186514" gradientUnits="userSpaceOnUse">
<stop stop-color="#E09B3D"/>
<stop offset="0.3" stop-color="#C74C4D"/>
<stop offset="0.6" stop-color="#C21975"/>
<stop offset="1" stop-color="#7024C4"/>
</linearGradient>
<linearGradient id="paint2_linear_2_681" x1="18.2193" y1="23.9302" x2="18.2193" y2="0.186501" gradientUnits="userSpaceOnUse">
<stop stop-color="#E09B3D"/>
<stop offset="0.3" stop-color="#C74C4D"/>
<stop offset="0.6" stop-color="#C21975"/>
<stop offset="1" stop-color="#7024C4"/>
</linearGradient>
</defs>
</svg>
