<svg width="24" height="24" viewBox="0 0 24 24" fill="none" xmlns="http://www.w3.org/2000/svg">
<path d="M21.829 0.00012207H2.17099C0.972 0.00012207 0 0.972122 0 2.17112V21.8291C0 23.0281 0.972 24.0001 2.17099 24.0001H21.8289C23.028 24.0001 24 23.0281 24 21.8291V2.17112C24 0.972122 23.028 0.00012207 21.829 0.00012207ZM7.42662 20.7233C7.42662 21.0722 7.14377 21.3551 6.79483 21.3551H4.10544C3.7565 21.3551 3.47365 21.0722 3.47365 20.7233V9.44952C3.47365 9.10058 3.7565 8.81773 4.10544 8.81773H6.79483C7.14377 8.81773 7.42662 9.10058 7.42662 9.44952V20.7233ZM5.45014 7.75501C4.0391 7.75501 2.8952 6.61112 2.8952 5.20008C2.8952 3.78904 4.0391 2.64515 5.45014 2.64515C6.86117 2.64515 8.00507 3.78904 8.00507 5.20008C8.00507 6.61112 6.86124 7.75501 5.45014 7.75501ZM21.4813 20.7742C21.4813 21.095 21.2211 21.3551 20.9004 21.3551H18.0145C17.6937 21.3551 17.4335 21.095 17.4335 20.7742V15.4862C17.4335 14.6973 17.6649 12.0293 15.372 12.0293C13.5934 12.0293 13.2327 13.8555 13.1602 14.675V20.7742C13.1602 21.095 12.9002 21.3551 12.5793 21.3551H9.78817C9.46737 21.3551 9.20727 21.095 9.20727 20.7742V9.39863C9.20727 9.07784 9.46737 8.81773 9.78817 8.81773H12.5793C12.9001 8.81773 13.1602 9.07784 13.1602 9.39863V10.3822C13.8197 9.39248 14.7998 8.62856 16.8866 8.62856C21.5077 8.62856 21.4813 12.9458 21.4813 15.3179V20.7742Z" fill="#0077B7"/>
</svg>
