<svg width="20" height="34" viewBox="0 0 20 34" fill="none" xmlns="http://www.w3.org/2000/svg">
<path d="M17.9584 15.7152C19.3027 14.4898 19.984 12.8276 19.984 11.1608C19.984 9.6442 19.4216 8.12532 18.2853 6.9268L13.5917 1.9826C12.3434 0.667591 10.647 -4.65395e-07 8.94604 -3.91044e-07C7.39597 -3.23288e-07 5.84591 0.551098 4.62277 1.66449L17.9607 15.7152L17.9584 15.7152ZM0.0160032 22.8392C0.0160032 24.3558 0.578418 25.8747 1.71468 27.0732L6.40832 32.0174C7.65661 33.3324 9.35071 34 11.0517 34L11.0585 34C12.604 34 14.1564 33.4489 15.3772 32.3355L2.04161 18.2848C0.697302 19.5079 0.0160031 21.1702 0.0160032 22.8347L0.0160032 22.8369L0.0160032 22.8392ZM1.69867 12.8186L17.9767 29.9676C19.3096 28.7534 19.9886 27.1068 20 25.4535L20 25.3706C19.9909 23.8674 19.4262 22.3665 18.3013 21.1792L2.02332 4.03242C0.679011 5.25782 -1.1837e-06 6.92008 -1.11085e-06 8.58681C-1.04455e-06 10.1034 0.562413 11.6223 1.69867 12.8186Z" fill="white"/>
</svg>
