<?xml version="1.0" encoding="UTF-8"?>
<svg data-name="Calque 1" id="Calque_1" viewBox="0 0 509.45 87.48" xmlns="http://www.w3.org/2000/svg">
  <defs>
    <style>
      .cls-1 {
        fill: #282828;
      }

      .cls-2 {
        fill: url(#Dégradé_sans_nom_5);
      }
    </style>
    <linearGradient data-name="Dégradé sans nom 5" gradientTransform="matrix(1, 0, 0, 1, 0, 0)"
                    gradientUnits="userSpaceOnUse" id="Dégradé_sans_nom_5" x1="29.49" x2="122.29" y1="90.14" y2="-2.66">
      <stop offset="0" stop-color="#d7007e"/>
      <stop offset="1" stop-color="aqua"/>
      <stop offset="1" stop-color="aqua"/>
    </linearGradient>
  </defs>
  <path class="cls-2"
        d="M81.62,78.55c5.47,5.88,12.89,8.86,20.33,8.86,6.77,0,13.55-2.46,18.9-7.43l22.07-20.53c5.87-5.46,8.85-12.88,8.85-20.32h0c0-6.78-2.46-13.56-7.43-18.91l-62.72,58.34ZM49.82,.07c-6.77,0-13.55,2.46-18.9,7.43L8.85,28.03C2.98,33.49,0,40.9,0,48.34v.03c0,6.76,2.46,13.55,7.43,18.89L70.15,8.93C64.69,3.05,57.27,.07,49.84,.07h-.01Zm44.73,7.36L18,78.63c5.42,5.83,12.77,8.8,20.15,8.85h.37c6.71-.04,13.41-2.51,18.71-7.43L133.77,8.85c-5.47-5.88-12.89-8.85-20.33-8.85-6.77,0-13.55,2.46-18.89,7.43"/>
  <path class="cls-1"
        d="M218.17,46.68c-2.98-1.88-6.79-3.51-11.7-5-4.61-1.39-7.94-2.82-9.9-4.25-1.78-1.32-2.64-2.88-2.64-4.79,0-2.37,.8-4.14,2.45-5.42,1.72-1.33,4.21-2.01,7.41-2.01,3.42,0,6.05,.82,7.84,2.45,1.76,1.63,2.63,3.84,2.63,6.77v1.09h12.71v-1.09c0-3.75-1.02-7.24-3.02-10.34-2-3.07-4.78-5.48-8.27-7.14-3.41-1.66-7.38-2.49-11.81-2.49-6.61,0-12.08,1.71-16.26,5.07-4.25,3.43-6.42,7.85-6.42,13.16,0,6.06,2.98,11.03,8.83,14.76,2.98,1.88,6.89,3.57,11.99,5.13,4.78,1.46,8.09,2.89,9.84,4.28,1.62,1.26,2.4,3.03,2.4,5.41,0,2.17-.78,3.85-2.38,5.16-1.65,1.35-4.22,2.03-7.65,2.03-4.01,0-7.09-.88-9.16-2.63-2.04-1.73-3.03-4.12-3.03-7.31v-1.09h-12.75v1.09c0,4.08,1.1,7.72,3.27,10.82,2.15,3.04,5.21,5.48,9.07,7.21,3.82,1.71,8.05,2.58,12.59,2.58,6.88,0,12.44-1.61,16.52-4.79,4.14-3.23,6.25-7.66,6.25-13.14,0-3.34-.73-6.32-2.15-8.84-1.4-2.49-3.65-4.73-6.68-6.66Z"/>
  <rect class="cls-1" height="53.3" width="11.89" x="461.82" y="26.81"/>
  <path class="cls-1"
        d="M501,69.54c-.8-.89-1.2-2.35-1.2-4.38v-28.06h9.34v-10.29h-9.34V14.46h-11.89v12.34h-6.73v10.29h6.73v28.49c0,10.09,4.52,14.51,13.65,14.51,2.51,0,5.17-.11,7.87-.85v-8.86c-1.4,.32-2.79,.48-4.16,.48-2.05,0-3.48-.45-4.28-1.34Z"/>
  <circle class="cls-1" cx="467.76" cy="14.63" r="7.09"/>
  <path class="cls-1"
        d="M269.1,64.81c-2.02,4.15-5.92,6.22-11.69,6.22s-8.37-3.35-8.37-10.08V26.81h-11.89V61.09c0,6.37,1.47,11.22,4.42,14.59,2.96,3.35,7.3,4.42,13.04,4.42,6.19,0,11.02-1.35,14.48-5.12v5.12h11.89V26.81h-11.89v38.01Z"/>
  <path class="cls-1"
        d="M349.12,25.83c-6.98,0-12.39,2.73-16.24,8.18-2.61-5.45-7.45-8.18-14.53-8.18-6.27,0-11.23,2.07-14.92,6.18v-5.21h-11.89v53.3h11.89V41.49c1.99-3.91,5.37-5.85,10.13-5.85,6.2,0,9.38,3.12,9.54,9.4v35.07h11.89l-.05-36.55c.68-2.36,1.88-4.28,3.6-5.74,1.71-1.46,3.92-2.18,6.63-2.18,3.39,0,5.82,.79,7.29,2.36,1.47,1.58,2.2,4.05,2.2,7.43v34.68h11.89V45.09c-.06-6.35-1.52-11.15-4.38-14.38-2.85-3.27-7.2-4.88-13.03-4.88Z"/>
  <path class="cls-1"
        d="M434.26,25.83c-6.98,0-12.39,2.71-16.24,8.12-2.61-5.41-7.45-8.12-14.53-8.12-6.27,0-11.23,2.06-14.92,6.14v-5.16h-11.89v53.3h11.89V41.38c1.99-3.89,5.37-5.81,10.13-5.81,6.2,0,9.38,3.1,9.54,9.34v35.2h11.89l-.05-36.67c.68-2.35,1.88-4.25,3.6-5.7,1.71-1.45,3.92-2.17,6.63-2.17,3.39,0,5.82,.78,7.29,2.35,1.47,1.57,2.2,4.03,2.2,7.38v34.81h11.89V44.96c-.06-6.3-1.52-11.07-4.38-14.29-2.85-3.24-7.2-4.85-13.03-4.85Z"/>
</svg>
