<svg width="24" height="24" viewBox="0 0 24 24" fill="none" xmlns="http://www.w3.org/2000/svg">
<path d="M12 24.0001C18.6274 24.0001 24 18.6275 24 12.0001C24 5.3727 18.6274 0.00012207 12 0.00012207C5.37258 0.00012207 0 5.3727 0 12.0001C0 18.6275 5.37258 24.0001 12 24.0001Z" fill="#039BE5"/>
<path d="M5.49126 11.7403L17.0613 7.27933C17.5983 7.08533 18.0673 7.41033 17.8933 8.22233L17.8943 8.22133L15.9243 17.5023C15.7783 18.1603 15.3873 18.3203 14.8403 18.0103L11.8403 15.7993L10.3933 17.1933C10.2333 17.3533 10.0983 17.4883 9.78826 17.4883L10.0013 14.4353L15.5613 9.41233C15.8033 9.19933 15.5073 9.07933 15.1883 9.29133L8.31726 13.6173L5.35526 12.6933C4.71226 12.4893 4.69826 12.0503 5.49126 11.7403Z" fill="white"/>
</svg>
