<svg width="24" height="24" viewBox="0 0 24 24" fill="none" xmlns="http://www.w3.org/2000/svg">
<path d="M12 24.0001C18.6274 24.0001 24 18.6275 24 12.0001C24 5.3727 18.6274 0.00012207 12 0.00012207C5.37258 0.00012207 0 5.3727 0 12.0001C0 18.6275 5.37258 24.0001 12 24.0001Z" fill="black"/>
<path d="M13.168 12.0001C13.168 14.8598 10.8656 17.178 8.02537 17.178C5.18522 17.178 2.88281 14.8598 2.88281 12.0001C2.88281 9.14047 5.18522 6.82227 8.02542 6.82227C10.8656 6.82227 13.168 9.14047 13.168 12.0001Z" fill="white"/>
<path d="M18.8096 12.0002C18.8096 14.6921 17.6584 16.8742 16.2383 16.8742C14.8182 16.8742 13.667 14.6921 13.667 12.0002C13.667 9.30827 14.8182 7.1261 16.2383 7.1261C17.6584 7.1261 18.8096 9.30827 18.8096 12.0002Z" fill="white"/>
<path d="M21.1173 12.0001C21.1173 14.412 20.7124 16.3671 20.2129 16.3671C19.7135 16.3671 19.3086 14.412 19.3086 12.0001C19.3086 9.58834 19.7134 7.63318 20.2129 7.63318C20.7124 7.63318 21.1173 9.58834 21.1173 12.0001Z" fill="white"/>
</svg>
