<svg xmlns="http://www.w3.org/2000/svg" width="69" height="88"><path fill="#4D4D4D" d="M64.03 19.229c2.693 2.01 4.118 4.3 4.459 6.934.772 5.95-1.107 11.549-2.89 17.175-1.932 6.104-4.01 12.19-5.434 18.392-.771 3.361-.207 6.952-.442 10.429-.179 2.633-.425 5.3-1.108 7.854-.438 1.627-1.472 3.262-2.689 4.562-2.621 2.799-6.012 2.712-8.372-.249-1.915-2.401-3.407-5.07-5.094-7.615-5.251-7.927-10.569-8.05-16.193-.322-1.712 2.354-3.126 4.877-4.854 7.221-2.979 4.037-7.418 3.99-10.068-.25-3.575-5.72-3.667-11.746-.92-17.758 2.688-5.882 7.067-10.673 13.428-13.578 7.881-3.602 16.106-6.604 24.058-10.093 4.113-1.805 8.208-3.8 11.863-6.238 7.032-4.695 7.99-8.707 4.256-16.464z"/><path fill="#00BCD4" d="M29.792 20.565C12.941 25.826 8.849 36.997 12.833 50.922c1.415-.937 2.641-1.971 4.076-2.66 5.178-2.485 10.455-4.811 15.641-7.285 3.302-1.574 6.83-2.963 9.655-5.069 2.156-1.607 3.789-4.058 4.891-6.414 1.215-2.597-.495-5.234-3.64-5.704-2.689-.401-5.68-.415-8.296.204-7.597 1.799-14.089 5.318-18.979 10.98.469-2.548 2.112-4.496 4.173-6.146 7.319-5.862 16.011-9.242 25.685-10.474 3.497-.445 7.209-.476 10.683.042 7.037 1.051 9.714 7.065 5.24 12.007-2.344 2.589-5.474 4.885-8.764 6.475-6.282 3.034-12.93 5.475-19.435 8.146-1.936.795-3.916 1.507-5.847 2.314-8.263 3.449-15.081 8.283-19.251 16.316-.544-2.641-.808-4.854-1.476-6.967-1.747-5.537-3.758-11.009-5.485-16.551a41.69 41.69 0 01-1.609-7.573c-.801-6.882 3.482-11.721 11.157-12.965 6.274-1.016 12.378.124 18.54.967zM54.719 14.625c-4.343.033-8.033-3.289-8.066-7.261C46.621 3.42 50.28.038 54.618 0c4.334-.036 8.014 3.286 8.052 7.271.038 3.981-3.571 7.32-7.951 7.354zM17.203 8.773c.019 4.038-3.504 7.331-7.881 7.366-4.362.035-7.973-3.241-7.998-7.259-.028-4.092 3.405-7.273 7.881-7.302 4.474-.03 7.98 3.123 7.998 7.195z"/></svg>